<svg xmlns="http://www.w3.org/2000/svg" width="40" height="37" viewBox="0 0 40 37" fill="none">
<path d="M38.0389 0H1.9623C0.883783 0 0 0.812958 0 1.81414V35.1893C0 36.187 0.882535 37 1.9623 37H38.0389C39.1162 37 40 36.187 40 35.1893V1.81414C40.0012 0.812958 39.1175 0 38.0389 0Z" fill="#009EE2"/>
<path d="M37.3224 22.055C35.8757 20.3575 32.3355 20.0018 30.4194 20.0018C22.4329 20.0018 14.7909 21.3748 7.76182 23.8864C7.82298 21.9591 7.76306 20.0295 7.52838 18.1253C12.8798 16.6807 22.3218 15.5201 28.537 16.0236C34.3428 16.4947 36.5298 19.4879 37.3224 22.055Z" fill="white"/>
<path d="M34.7236 17.1541C33.1046 15.7476 31.8701 14.7337 26.9606 14.0766C22.0523 13.423 11.6679 14.4115 7.07167 15.482C6.74212 13.8018 6.29899 12.1424 5.74475 10.5165C8.89292 10.0049 12.1335 9.73584 15.4439 9.73584C18.6582 9.73584 21.8151 9.98989 24.8797 10.4737C31.372 11.5026 33.4379 14.8665 34.7236 17.1541Z" fill="white"/>
<path d="M2.22565 3.15608C18.9427 2.75422 28.3335 9.52464 30.2034 11.3896C28.5757 10.1344 25.435 9.06504 22.7299 8.58234C19.4058 7.99226 15.9742 7.68509 12.4503 7.68509C9.87512 7.68509 7.33736 7.85137 4.85827 8.17471C4.22664 6.64926 3.05576 4.6007 2.22565 3.15608Z" fill="white"/>
<path d="M34.7234 31.8554C37.4122 26.7155 36.7819 25.8171 31.5016 26.4118C23.2942 27.3391 12.9484 30.5898 5.13287 34.4941C6.55841 31.942 7.25371 29.3727 7.52833 27.055C15.0742 23.9903 23.3765 22.2258 32.1045 22.0664C41.242 21.899 37.8129 28.3657 34.7234 31.8554Z" fill="white"/>
</svg>