<svg xmlns="http://www.w3.org/2000/svg" width="300" height="300" viewBox="0 0 300 300" version="1.1"><path d="M 44.413 31.139 C 44.196 31.490, 45.631 33.006, 47.600 34.508 C 55.096 40.226, 65.948 58.190, 71.004 73.250 C 72.250 76.963, 73.547 79.999, 73.885 79.997 C 74.223 79.995, 79 79.131, 84.500 78.075 C 120.293 71.209, 160.641 70.206, 186.299 75.547 C 202.762 78.974, 217.197 84.799, 228.641 92.633 C 232.251 95.105, 235.441 96.892, 235.730 96.604 C 236.420 95.914, 229.519 87.796, 222.829 81.427 C 195.721 55.620, 159.517 40.426, 108.500 33.445 C 96.383 31.787, 45.148 29.943, 44.413 31.139 M 145 90.653 C 126.096 91.994, 99.975 96.932, 86 101.808 C 81.846 103.257, 80.528 104.188, 80.615 105.613 C 80.679 106.651, 81.466 113.575, 82.364 121 C 83.262 128.425, 83.998 141.813, 83.999 150.750 C 84 161.007, 84.372 167, 85.009 167 C 85.563 167, 93.101 164.942, 101.759 162.426 C 161.017 145.208, 209.231 139.231, 238 145.535 C 247.500 147.617, 258.376 152.690, 263.376 157.371 C 269.706 163.298, 270.117 162.633, 266.569 152.202 C 255.503 119.666, 229.464 99.926, 188.520 93.032 C 177.374 91.155, 155.096 89.938, 145 90.653 M 198 161.676 C 170.198 164.503, 124.595 176.032, 93.402 188.120 L 83.303 192.033 81.504 203.267 C 77.827 226.236, 70.068 249.833, 61.906 262.874 C 59.712 266.380, 58.048 269.616, 58.208 270.064 C 58.369 270.513, 68.625 266.374, 81 260.867 C 123.756 241.841, 163.513 226.800, 188 220.388 C 201.639 216.816, 219.467 216.314, 222.890 219.405 C 227.958 223.981, 224.151 234.272, 212.466 247.582 C 209.460 251.006, 207 254.076, 207 254.404 C 207 260.077, 240.669 229.773, 254.668 211.500 C 261.166 203.019, 266.968 190.297, 266.984 184.500 C 267.012 173.624, 258.205 165.982, 241.715 162.576 C 234.624 161.111, 208.785 160.579, 198 161.676" stroke="none" fill="#fbfbfc" fill-rule="evenodd"/></svg>